<svg xmlns="http://www.w3.org/2000/svg" width="430.845" height="436.526" viewBox="0 0 430.845 436.526">
  <g id="_333" data-name="333" transform="translate(-35.937 -38.994)">
    <g id="freepik--background-complete--inject-695">
      <path id="路径_139" data-name="路径 139" d="M342.17,323.62c-2,1.17-4.54.07-6.77.58-.47.1-1,.4-1,.88s.46.67.84.84a22.821,22.821,0,0,0,3.29,1.13,17.409,17.409,0,0,0-1.12,3.1c-.12.48-.18,1.09.24,1.35s1.1-.2,1.46-.66c1.14-1.46,2.29-2.91,3.43-4.36a2,2,0,0,1,0,1.85,5.94,5.94,0,0,1-1.17,1.52,15.541,15.541,0,0,0,5.8-.19,22.309,22.309,0,0,0,6.94-1.87,7.61,7.61,0,0,0,4.27-5.48,37.86,37.86,0,0,1-3.94-3.45,6.92,6.92,0,0,0-4.69-2c-1.79.09-3.32,1.25-4.75,2.33s-3.06,2.16-4.85,2a2.45,2.45,0,0,0-.81,0,.64.64,0,0,0-.54.54.84.84,0,0,0,.34.62,4.33,4.33,0,0,0,3.22,1.11" fill="#ebebeb"/>
      <path id="路径_140" data-name="路径 140" d="M346.17,325.68a31.188,31.188,0,0,0-2.29-5.69,9.431,9.431,0,0,1-1.15.65c1.13,2.3,2.38,4.93,3.29,7.33a2.4,2.4,0,0,0,.15-2.29Z" fill="#fafafa"/>
      <path id="路径_141" data-name="路径 141" d="M346.25,318.28l-1.09.78c1.09,2.53,2.19,5.05,3.28,7.57a1,1,0,0,0,.23.38.35.35,0,0,0,.41.06.48.48,0,0,0,.17-.4,10.91,10.91,0,0,0-3-8.39Z" fill="#fafafa"/>
      <path id="路径_142" data-name="路径 142" d="M350.16,316.83c.65,2.05,1.24,4.27,1.68,6.38a7,7,0,0,1,.2,2.44.62.62,0,0,1-.33.53c-.31.1-.55-.28-.66-.59-1-2.8-2-5.56-2.85-8.41a4.839,4.839,0,0,1,1.96-.35Z" fill="#fafafa"/>
      <path id="路径_143" data-name="路径 143" d="M352.36,317.41a51,51,0,0,0,1.87,6c.12.26.31.56.59.52s.36-.48.33-.8c-.15-1.72-.2-2.38-.46-4.09A10.781,10.781,0,0,0,352.36,317.41Z" fill="#fafafa"/>
      <path id="路径_144" data-name="路径 144" d="M356.44,322.11a.27.27,0,0,1-.2.33.26.26,0,0,1-.32-.2.27.27,0,1,1,.52-.13Z" fill="#e0e0e0"/>
      <path id="路径_145" data-name="路径 145" d="M143.21,355.48c-1.44.87-3.32.06-5,.43-.34.08-.74.3-.72.65s.34.49.62.61a17.189,17.189,0,0,0,2.41.84,13.088,13.088,0,0,0-.82,2.27c-.09.35-.13.8.17,1s.81-.15,1.08-.49l2.51-3.19a1.41,1.41,0,0,1,0,1.35,4.241,4.241,0,0,1-.86,1.12,11.541,11.541,0,0,0,4.26-.14,16.47,16.47,0,0,0,5.1-1.37,5.62,5.62,0,0,0,3.13-4,27.792,27.792,0,0,1-2.89-2.54,5.12,5.12,0,0,0-3.45-1.49,6.73,6.73,0,0,0-3.48,1.71,5.71,5.71,0,0,1-3.56,1.51,1.73,1.73,0,0,0-.6,0,.47.47,0,0,0-.39.39.63.63,0,0,0,.25.46,3.2,3.2,0,0,0,2.36.82" fill="#ebebeb"/>
      <path id="路径_146" data-name="路径 146" d="M146.16,357a23.74,23.74,0,0,0-1.69-4.18,6.622,6.622,0,0,1-.84.48c.83,1.69,1.74,3.62,2.42,5.38A1.8,1.8,0,0,0,146.16,357Z" fill="#fafafa"/>
      <path id="路径_147" data-name="路径 147" d="M146.21,351.57l-.8.57,2.41,5.56a.69.69,0,0,0,.17.27.25.25,0,0,0,.3,0,.39.39,0,0,0,.12-.3A8,8,0,0,0,146.21,351.57Z" fill="#fafafa"/>
      <path id="路径_148" data-name="路径 148" d="M149.08,350.5a47.547,47.547,0,0,1,1.23,4.69,5.12,5.12,0,0,1,.15,1.78.411.411,0,0,1-.24.4c-.16.05-.4-.21-.49-.43-.74-2.07-1.43-4.09-2.09-6.18A3.64,3.64,0,0,1,149.08,350.5Z" fill="#fafafa"/>
      <path id="路径_149" data-name="路径 149" d="M150.69,350.93a39,39,0,0,0,1.38,4.4c.08.19.23.41.43.37s.27-.35.25-.58c-.12-1.26-.15-1.75-.35-3A7.54,7.54,0,0,0,150.69,350.93Z" fill="#fafafa"/>
      <path id="路径_150" data-name="路径 150" d="M153.69,354.38a.2.2,0,0,1-.14.24.2.2,0,1,1-.1-.39.2.2,0,0,1,.24.15Z" fill="#e0e0e0"/>
      <path id="路径_151" data-name="路径 151" d="M376.09,313.56c-1.45.86-3.33.06-5,.43-.35.08-.75.3-.73.65s.34.49.62.61a17.193,17.193,0,0,0,2.41.84,13.091,13.091,0,0,0-.82,2.27c-.09.35-.13.8.18,1s.8-.15,1.07-.49l2.51-3.19a1.38,1.38,0,0,1,0,1.35,4.2,4.2,0,0,1-.85,1.12,11.71,11.71,0,0,0,4.25-.14,16.47,16.47,0,0,0,5.1-1.37,5.59,5.59,0,0,0,3.13-4,28.869,28.869,0,0,1-2.89-2.54,5.11,5.11,0,0,0-3.44-1.49,6.72,6.72,0,0,0-3.49,1.71,5.6,5.6,0,0,1-3.56,1.5,2.41,2.41,0,0,0-.6,0,.49.49,0,0,0-.39.4.63.63,0,0,0,.25.46,3.26,3.26,0,0,0,2.36.82" fill="#ebebeb"/>
      <path id="路径_152" data-name="路径 152" d="M379,315.07a23.2,23.2,0,0,0-1.69-4.17,6.617,6.617,0,0,1-.84.48c.83,1.69,1.75,3.62,2.42,5.38a1.82,1.82,0,0,0,.11-1.69Z" fill="#fafafa"/>
      <path id="路径_153" data-name="路径 153" d="M379.08,309.65l-.8.57,2.41,5.56a.69.69,0,0,0,.17.27.25.25,0,0,0,.3.05.37.37,0,0,0,.13-.3A8,8,0,0,0,379.08,309.65Z" fill="#fafafa"/>
      <path id="路径_154" data-name="路径 154" d="M382,308.58a47.539,47.539,0,0,1,1.23,4.69,4.871,4.871,0,0,1,.15,1.78.388.388,0,0,1-.24.39c-.16.04-.4-.2-.49-.43-.74-2.06-1.43-4.08-2.09-6.17a3.659,3.659,0,0,1,1.44-.26Z" fill="#fafafa"/>
      <path id="路径_155" data-name="路径 155" d="M383.56,309a38.437,38.437,0,0,0,1.38,4.39c.08.19.23.42.43.38s.27-.35.25-.58c-.12-1.26-.15-1.75-.34-3a7.9,7.9,0,0,0-1.72-1.19Z" fill="#fafafa"/>
      <path id="路径_156" data-name="路径 156" d="M386.56,312.46a.2.2,0,0,1-.14.24.19.19,0,0,1-.24-.15.2.2,0,1,1,.38-.09Z" fill="#e0e0e0"/>
      <path id="路径_157" data-name="路径 157" d="M121.48,372.23c-1.19.72-2.74,0-4.1.36-.28.06-.61.24-.59.53s.27.41.51.51a13.759,13.759,0,0,0,2,.69,9.741,9.741,0,0,0-.68,1.87c-.08.29-.11.66.14.82s.67-.12.89-.4l2.07-2.64a1.17,1.17,0,0,1,0,1.12,3.491,3.491,0,0,1-.71.92,9.651,9.651,0,0,0,3.51-.11,13.55,13.55,0,0,0,4.21-1.14,4.6,4.6,0,0,0,2.58-3.31,23.517,23.517,0,0,1-2.38-2.1,4.25,4.25,0,0,0-2.84-1.23,5.591,5.591,0,0,0-2.88,1.41,4.62,4.62,0,0,1-2.94,1.24,1.61,1.61,0,0,0-.49,0,.39.39,0,0,0-.33.32.51.51,0,0,0,.21.38,2.64,2.64,0,0,0,1.95.68" fill="#ebebeb"/>
      <path id="路径_158" data-name="路径 158" d="M123.91,373.48a19.351,19.351,0,0,0-1.39-3.44,5,5,0,0,1-.69.39c.68,1.4,1.44,3,2,4.44a1.45,1.45,0,0,0,.08-1.39Z" fill="#fafafa"/>
      <path id="路径_159" data-name="路径 159" d="M124,369l-.66.48,2,4.58a.61.61,0,0,0,.15.23.2.2,0,0,0,.24,0,.33.33,0,0,0,.11-.25A6.64,6.64,0,0,0,124,369Z" fill="#fafafa"/>
      <path id="路径_160" data-name="路径 160" d="M126.32,368.12a34.9,34.9,0,0,1,1,3.87,4.08,4.08,0,0,1,.12,1.47.342.342,0,0,1-.19.33c-.12.04-.34-.17-.41-.36-.61-1.7-1.18-3.37-1.72-5.09a3,3,0,0,1,1.2-.22Z" fill="#fafafa"/>
      <path id="路径_161" data-name="路径 161" d="M127.66,368.47a29.711,29.711,0,0,0,1.13,3.63c.07.16.19.35.36.32s.22-.29.2-.48c-.09-1.05-.12-1.45-.28-2.48a6.53,6.53,0,0,0-1.41-.99Z" fill="#fafafa"/>
      <path id="路径_162" data-name="路径 162" d="M130.13,371.32a.165.165,0,0,1-.32.08.165.165,0,0,1,.32-.08Z" fill="#e0e0e0"/>
      <path id="路径_163" data-name="路径 163" d="M352.23,297.23c-2.21,1.32-5.1.08-7.61.65-.53.12-1.14.46-1.11,1s.52.75.95.94a26.792,26.792,0,0,0,3.69,1.27,20.684,20.684,0,0,0-1.26,3.48c-.13.54-.19,1.22.27,1.52s1.24-.22,1.65-.75l3.85-4.89a2.17,2.17,0,0,1,0,2.07,6.39,6.39,0,0,1-1.31,1.71,17.69,17.69,0,0,0,6.52-.2,25.41,25.41,0,0,0,7.8-2.11c2.4-1.25,4.47-3.47,4.8-6.16a41.6,41.6,0,0,1-4.42-3.88,7.81,7.81,0,0,0-5.28-2.28c-2,.1-3.73,1.41-5.34,2.62s-3.44,2.42-5.45,2.3a3.15,3.15,0,0,0-.92,0,.74.74,0,0,0-.6.61.94.94,0,0,0,.39.7,4.93,4.93,0,0,0,3.61,1.25" fill="#ebebeb"/>
      <path id="路径_164" data-name="路径 164" d="M356.74,299.54a35.059,35.059,0,0,0-2.59-6.39,10.254,10.254,0,0,1-1.28.73c1.27,2.59,2.67,5.54,3.7,8.24A2.74,2.74,0,0,0,356.74,299.54Z" fill="#fafafa"/>
      <path id="路径_165" data-name="路径 165" d="M356.82,291.23l-1.23.88,3.69,8.51a1.171,1.171,0,0,0,.27.42.4.4,0,0,0,.46.07.55.55,0,0,0,.18-.45A12.28,12.28,0,0,0,356.82,291.23Z" fill="#fafafa"/>
      <path id="路径_166" data-name="路径 166" d="M361.21,289.6a74.117,74.117,0,0,1,1.89,7.17,7.939,7.939,0,0,1,.23,2.74.629.629,0,0,1-.37.6c-.24.08-.62-.31-.74-.66-1.15-3.16-2.2-6.25-3.21-9.46A5.579,5.579,0,0,1,361.21,289.6Z" fill="#fafafa"/>
      <path id="路径_167" data-name="路径 167" d="M363.68,290.25a60,60,0,0,0,2.11,6.74c.13.29.35.63.66.58s.41-.54.38-.9c-.17-1.94-.23-2.67-.52-4.6a12,12,0,0,0-2.63-1.82Z" fill="#fafafa"/>
      <path id="路径_168" data-name="路径 168" d="M368.28,295.54a.31.31,0,0,1-.23.37.3.3,0,0,1-.36-.23.3.3,0,1,1,.59-.14Z" fill="#e0e0e0"/>
      <path id="路径_169" data-name="路径 169" d="M120.84,351.21c-1.53.91-3.53.05-5.27.45-.37.08-.79.32-.77.69s.36.52.66.65a19.258,19.258,0,0,0,2.55.89,14.419,14.419,0,0,0-.87,2.41c-.09.37-.13.84.19,1.05s.86-.16,1.14-.52l2.67-3.39a1.56,1.56,0,0,1,0,1.44,4.72,4.72,0,0,1-.91,1.18,12.24,12.24,0,0,0,4.51-.14,17.56,17.56,0,0,0,5.41-1.46,5.92,5.92,0,0,0,3.32-4.26,30,30,0,0,1-3.06-2.7,5.41,5.41,0,0,0-3.66-1.57,7.05,7.05,0,0,0-3.7,1.81,6,6,0,0,1-3.77,1.59,2.29,2.29,0,0,0-.64,0,.53.53,0,0,0-.42.42.68.68,0,0,0,.27.49,3.45,3.45,0,0,0,2.51.87" fill="#ebebeb"/>
      <path id="路径_170" data-name="路径 170" d="M124,352.81a24.6,24.6,0,0,0-1.79-4.43,6.733,6.733,0,0,1-.89.51c.88,1.79,1.85,3.84,2.56,5.71a1.88,1.88,0,0,0,.12-1.79Z" fill="#fafafa"/>
      <path id="路径_171" data-name="路径 171" d="M124,347.05l-.85.61c.85,2,1.7,3.93,2.56,5.9a.68.68,0,0,0,.18.29.27.27,0,0,0,.32,0,.42.42,0,0,0,.13-.31,8.56,8.56,0,0,0-2.34-6.49Z" fill="#fafafa"/>
      <path id="路径_172" data-name="路径 172" d="M127.06,345.92a50.475,50.475,0,0,1,1.31,5,5.57,5.57,0,0,1,.16,1.9.49.49,0,0,1-.26.42c-.24.07-.43-.22-.51-.46-.79-2.19-1.53-4.33-2.23-6.55a3.8,3.8,0,0,1,1.53-.31Z" fill="#fafafa"/>
      <path id="路径_173" data-name="路径 173" d="M128.77,346.37a39.762,39.762,0,0,0,1.47,4.67c.08.2.24.44.45.4s.29-.37.26-.61c-.12-1.35-.15-1.86-.36-3.19a8.479,8.479,0,0,0-1.82-1.27Z" fill="#fafafa"/>
      <path id="路径_174" data-name="路径 174" d="M132,350a.21.21,0,0,1-.16.25.2.2,0,0,1-.25-.15.22.22,0,0,1,.15-.26.23.23,0,0,1,.26.16Z" fill="#e0e0e0"/>
      <path id="路径_175" data-name="路径 175" d="M123.71,316c.08.11-11.65,8.45-26.2,18.61S71.09,353,71,352.84s11.64-8.45,26.2-18.62S123.62,315.92,123.71,316Z" fill="#e0e0e0"/>
      <path id="路径_176" data-name="路径 176" d="M111.61,435.46c-.12-.08,12.43-19.42,28-43.21s28.35-43,28.47-42.93-12.43,19.42-28,43.22S111.73,435.54,111.61,435.46Z" fill="#e0e0e0"/>
      <path id="路径_177" data-name="路径 177" d="M112.18,442.91c-.12-.08,2.77-4.88,6.46-10.71s6.77-10.52,6.89-10.44-2.77,4.87-6.45,10.71S112.3,443,112.18,442.91Z" fill="#e0e0e0"/>
      <path id="路径_178" data-name="路径 178" d="M198.6,475.52a115.1,115.1,0,0,1,3-15.13,114.23,114.23,0,0,1-3,15.13Z" fill="#e0e0e0"/>
      <path id="路径_179" data-name="路径 179" d="M337.2,389c-.11.1-6.79-6.49-14.92-14.73s-14.66-15-14.55-15.09,6.78,6.49,14.92,14.73S337.3,388.85,337.2,389Z" fill="#e0e0e0"/>
      <path id="路径_180" data-name="路径 180" d="M377,440.49c-.1.11-5.36-4.65-11.75-10.62s-11.49-10.89-11.39-11,5.36,4.65,11.75,10.62S377.11,440.39,377,440.49Z" fill="#e0e0e0"/>
      <path id="路径_181" data-name="路径 181" d="M403.56,348.29c-.08.12-7.75-4.48-17.13-10.29s-16.92-10.61-16.85-10.73,7.74,4.48,17.13,10.29S403.63,348.17,403.56,348.29Z" fill="#e0e0e0"/>
      <path id="路径_182" data-name="路径 182" d="M466.73,135.66c.62-4.56-5.81-8.31-10.64-8.7-2.31-.18-4.7.17-6.89-.59-4.73-1.65-6.62-7.77-11.23-9.71-3.46-1.46-7.43-.16-10.78,1.52s-6.65,3.81-10.39,4c-3.25.21-6.78-1-9.62.6-2.12,1.18-3.23,3.62-5.19,5.06s-4.4,1.71-6.78,1.84-4.82.15-7,1.14-4,3.28-3.5,5.61Z" fill="#f5f5f5"/>
      <path id="路径_183" data-name="路径 183" d="M145.18,178.31c.37-2.66-3.38-4.84-6.2-5.07a15.73,15.73,0,0,1-4-.35c-2.76-1-3.86-4.52-6.55-5.65-2-.85-4.33-.1-6.28.89s-3.87,2.21-6,2.35c-1.9.12-4-.58-5.61.35-1.24.69-1.89,2.11-3,2.95a7.28,7.28,0,0,1-3.95,1.07,11.08,11.08,0,0,0-4.07.66,3.23,3.23,0,0,0-2,3.27Z" fill="#ebebeb"/>
      <path id="路径_184" data-name="路径 184" d="M116,80.68c.61-4.44-5.66-8.1-10.38-8.48-2.25-.18-4.58.16-6.71-.58-4.62-1.61-6.46-7.57-11-9.47-3.37-1.42-7.25-.16-10.51,1.49s-6.49,3.71-10.13,3.94c-3.18.2-6.62-1-9.39.58-2.07,1.15-3.15,3.53-5.06,4.94s-4.3,1.67-6.61,1.79S41.53,75,39.42,76,35.58,79.2,36,81.47Z" fill="#f5f5f5"/>
      <path id="路径_185" data-name="路径 185" d="M265.85,39.8s-.44-.12-1.23-.28a10.27,10.27,0,0,0-3.38-.09,9.15,9.15,0,0,0-4.52,2,9.4,9.4,0,0,0-3.18,5.07v.06l-.19.75-.29-.71a10.09,10.09,0,0,0-3.84-4.6,9.92,9.92,0,0,0-4.67-1.58A12.87,12.87,0,0,0,240,41a4,4,0,0,1,1.16-.5,9.75,9.75,0,0,1,3.44-.44,10.08,10.08,0,0,1,4.9,1.55,10.49,10.49,0,0,1,4,4.83h-.48v-.06a9.76,9.76,0,0,1,3.39-5.32,9.2,9.2,0,0,1,4.76-2,9.1,9.1,0,0,1,3.47.25,3.5,3.5,0,0,1,1.21.49Z" fill="#e0e0e0"/>
      <path id="路径_186" data-name="路径 186" d="M425.71,183.37a10.742,10.742,0,0,1-1.23-.27,9.94,9.94,0,0,0-3.37-.09,9.15,9.15,0,0,0-4.52,2,9.44,9.44,0,0,0-3.19,5.07v.06l-.19.75-.29-.71a10.15,10.15,0,0,0-3.82-4.63,9.88,9.88,0,0,0-4.67-1.58,12.87,12.87,0,0,0-4.57.58A3.69,3.69,0,0,1,401,184a9.73,9.73,0,0,1,3.43-.43,9.92,9.92,0,0,1,4.9,1.55,10.4,10.4,0,0,1,4,4.83h-.48V190a9.8,9.8,0,0,1,3.38-5.32,9.26,9.26,0,0,1,4.77-2,9.1,9.1,0,0,1,3.47.25A4,4,0,0,1,425.71,183.37Z" fill="#e0e0e0"/>
      <path id="路径_187" data-name="路径 187" d="M149.68,39.81a15.521,15.521,0,0,1-1.12,1.29,28,28,0,0,0-2.75,3.73,27.29,27.29,0,0,0-4.08,14.49v.18h-.51a24.24,24.24,0,0,0-6.67-13.29,32.76,32.76,0,0,0-4.87-4,1.72,1.72,0,0,1,.4.18c.25.15.64.33,1.1.63A22.111,22.111,0,0,1,134.81,46,23.67,23.67,0,0,1,139,51.48a23.94,23.94,0,0,1,2.74,8h-.51V59.3a26.7,26.7,0,0,1,4.29-14.69,24.2,24.2,0,0,1,2.9-3.67c.38-.41.71-.68.92-.88a1.55,1.55,0,0,1,.34-.25Z" fill="#e0e0e0"/>
    </g>
    <g id="freepik--Iceberg--inject-695">
      <path id="路径_188" data-name="路径 188" d="M126,248.41,138.66,207l35.68-17.26,2.3-25.89,28.77-8.06,41.43-72.5,22.44,44.88,25.32-4.6,19.57,38L360.77,184l8.06,36.25,16.11,28.19s-19.19-3-39.17-4.6c-13.76-1.13-28.12-1.17-35.92-1-13.36.26-34.38,3.14-58.73,6.09s-77.36-6.22-99.22-3.34S126,248.41,126,248.41Z" fill="#f5f5f5"/>
      <path id="路径_189" data-name="路径 189" d="M176.64,163.83l32.35,18.31-5.83,65.39-40.6-2.5,10.37-26.83Z" fill="#ebebeb"/>
      <path id="路径_190" data-name="路径 190" d="M246.84,83.27l-11.38,63.58-26.47,35.29-32.35-18.31,28.77-8.06Z" fill="#fafafa"/>
      <path id="路径_191" data-name="路径 191" d="M138.66,206.98l34.27,11.22,1.41-28.48Z" fill="#fafafa"/>
      <path id="路径_192" data-name="路径 192" d="M230.85,247.53,229.34,243l-20.35-60.86,26.47-35.29,4.05,33.37Z" fill="#e0e0e0"/>
      <path id="路径_193" data-name="路径 193" d="M246.84,247.53l28.13-67.31H239.51l-8.66,67.31Z" fill="#ebebeb"/>
      <path id="路径_194" data-name="路径 194" d="M246.84,83.27l28.13,96.95-5.69-52.07Z" fill="#e0e0e0"/>
      <path id="路径_195" data-name="路径 195" d="M294.6,123.55l8.76,58.59-34.08-53.99Z" fill="#fafafa"/>
      <path id="路径_196" data-name="路径 196" d="M309.51,242.77l-6.44-62.55-33.79-52.07L275,180.22l5.77,65.09C291.07,243.71,300.76,242.38,309.51,242.77Z" fill="#ebebeb"/>
      <path id="路径_197" data-name="路径 197" d="M360.77,183.97l-9.85,38.45,4.93,22.68,29.09,3.31-16.11-28.19Z" fill="#ebebeb"/>
      <path id="路径_198" data-name="路径 198" d="M314.17,161.53l7.33,35.66,29.42,25.23,9.85-38.45Z" fill="#fafafa"/>
      <path id="路径_199" data-name="路径 199" d="M303.36,182.14l23.5,60.65-17.35-.02Z" fill="#e0e0e0"/>
      <path id="路径_200" data-name="路径 200" d="M384.94,248.41s-.1-.15-.28-.46l-.82-1.39-3.16-5.46c-2.75-4.8-6.8-11.83-12-20.82h0c-2.21-9.9-5-22.16-8.11-36.24l.1.12-46.62-22.4h-.07v-.07l-19.58-38,.27.13-25.32,4.61h-.19l-.09-.17c-5.95-11.92-12.16-24.32-18.49-37l-3.95-7.9h.46c-14.73,25.75-28.72,50.23-41.45,72.49l-.05.08h-.09l-28.78,8,.16-.19c-.82,9.16-1.59,17.77-2.32,25.89v.11l-.1.05-35.7,17.22.08-.09c-4,13.09-7.22,23.44-9.4,30.52-1.1,3.53-1.94,6.25-2.52,8.09-.28.91-.5,1.6-.65,2.07s-.24.7-.24.7.06-.24.2-.71.34-1.17.61-2.08c.56-1.85,1.38-4.57,2.44-8.11,2.15-7.1,5.29-17.46,9.27-30.57v-.06h.06l35.65-17.31-.11.16c.71-8.12,1.47-16.73,2.28-25.89v-.15h.15l28.77-8.07-.15.11,41.42-72.51.24-.42.21.43,4,7.9c6.34,12.67,12.54,25.07,18.49,37l-.27-.14,25.32-4.6h.18l.08.16,19.55,38-.11-.1,46.6,22.48h.08v.09c3.11,14.08,5.81,26.36,8,36.26h0c5.11,9,9.12,16.07,11.86,20.88l3.09,5.49.79,1.41Z" fill="#263238"/>
      <path id="路径_201" data-name="路径 201" d="M239.51,180.22a1.741,1.741,0,0,1,0,.34l-.1,1c-.11.89-.25,2.16-.45,3.79-.41,3.33-1,8.12-1.73,14.11-1.53,12-3.66,28.86-6.1,48.13l-.14,1.1-.36-1.06c-1.94-5.79-4-11.88-6.07-18.13l-15.75-47.27.09.12-23.47-13.4-6.5-3.75-1.7-1-.57-.36s.21.09.6.3l1.73.94,6.56,3.65L209.09,182h.08v.08c4.47,13.33,9.94,29.64,15.85,47.24l6.06,18.14-.5.05c2.52-19.26,4.71-36.07,6.28-48.1.8-6,1.44-10.77,1.89-14.09.23-1.63.4-2.9.53-3.78.06-.41.11-.74.15-1A1.45,1.45,0,0,1,239.51,180.22Z" fill="#263238"/>
      <path id="路径_202" data-name="路径 202" d="M246.84,82.39a.58.58,0,0,1,0,.23,5.339,5.339,0,0,1-.09.68c-.09.64-.22,1.51-.38,2.6-.37,2.31-.88,5.56-1.52,9.55-1.33,8.1-3.16,19.2-5.18,31.47-1.19,7-2.31,13.7-3.29,19.53v.11c-4.79,5.78-8.64,10.81-11.3,14.37L222,165.09l-.82,1.1a2,2,0,0,1-.3.36,2.62,2.62,0,0,1,.24-.4c.19-.3.44-.67.76-1.14.67-1,1.68-2.44,3-4.24,2.59-3.62,6.39-8.69,11.16-14.51l-.05.11c1-5.83,2.07-12.49,3.24-19.53,2.08-12.26,4-23.36,5.33-31.45.7-4,1.27-7.22,1.68-9.52q.3-1.64.48-2.58c.05-.27.1-.49.14-.67A.67.67,0,0,1,246.84,82.39Z" fill="#263238"/>
      <path id="路径_203" data-name="路径 203" d="M294.6,123.55a1.24,1.24,0,0,1,.07.28l.15.85.54,3.27c.45,2.89,1.09,7,1.89,12.08,1.55,10.26,3.69,24.41,6.08,40.15l.18,1.19-.66-1-1.29-2-22.92-35.45-6.89-10.78-1.85-2.94c-.2-.32-.35-.58-.47-.78a1.35,1.35,0,0,1-.15-.27,1.855,1.855,0,0,1,.19.24c.13.2.3.44.52.75l1.93,2.89,7,10.69c5.92,9.07,14.05,21.56,23,35.36l1.3,2-.48.18c-2.32-15.76-4.41-29.91-5.92-40.17-.73-5.1-1.31-9.22-1.73-12.11-.18-1.4-.33-2.5-.44-3.28a5.369,5.369,0,0,0-.1-.86,1.269,1.269,0,0,1,.05-.29Z" fill="#263238"/>
      <path id="路径_204" data-name="路径 204" d="M355,245a1.632,1.632,0,0,1-.11-.4c-.06-.31-.15-.7-.25-1.2-.22-1.1-.51-2.63-.89-4.57-.75-4-1.81-9.62-3.07-16.39l.07.12L331,205.14l-9.85-8.72-.06-.06v-.08c-2.12-10.21-4-19.06-5.28-25.4-.63-3.13-1.14-5.63-1.49-7.4-.16-.83-.29-1.49-.38-2a3.569,3.569,0,0,1-.1-.69,5.987,5.987,0,0,1,.18.67c.12.49.27,1.14.46,2,.39,1.76.95,4.25,1.64,7.36,1.36,6.33,3.27,15.17,5.47,25.37l-.08-.14,9.86,8.71,19.74,17.5.06.05v.08c1.19,6.78,2.19,12.43,2.89,16.42.33,1.95.58,3.49.77,4.59.08.51.14.91.19,1.22a1.812,1.812,0,0,1-.02.38Z" fill="#263238"/>
      <path id="路径_205" data-name="路径 205" d="M236.14,146.41a3.257,3.257,0,0,0,.09.62c.09.41.13,1,.22,1.8.17,1.6.42,3.91.74,6.84.62,5.94,1.49,14.38,2.54,24.53l-.22-.2h35.88l-.15.36-.7,1.65c-3.85,9.06-7.68,17.61-11.12,25.41s-6.5,14.83-9,20.78-4.42,10.78-5.73,14.14c-.65,1.66-1.15,3-1.5,3.87l-.41,1a1.792,1.792,0,0,1-.15.34,2,2,0,0,1,.1-.36l.36-1c.32-.89.77-2.21,1.41-3.9,1.25-3.38,3.13-8.25,5.58-14.21s5.47-13,8.89-20.83,7.23-16.37,11.08-25.42l.7-1.65.24.36H239.33v-.2c-1-10.16-1.79-18.6-2.36-24.54-.26-2.94-.47-5.25-.62-6.86-.06-.77-.11-1.37-.15-1.81A5.771,5.771,0,0,1,236.14,146.41Z" fill="#263238"/>
      <path id="路径_206" data-name="路径 206" d="M174.26,219.12c0,.13-8.1-2.42-18-5.71s-17.86-6.07-17.81-6.21,8.09,2.42,18,5.71S174.3,219,174.26,219.12Z" fill="#263238"/>
      <path id="路径_207" data-name="路径 207" d="M126.08,248.56l43,75.44,18.52,10.44,14.34,42.73v28.08l29.87,25.08,7.76,39.43,10.76,4.78L276,438.7l5.38-34.05,16.72-23.3V347.9L328,309.67l13.05-35,44-26.1c-28.17-3.82-54.46-6.65-73.13-5.48a29.173,29.173,0,0,0-4.58,0l-73.22,6.43L161.37,244Z" fill="#ebebeb"/>
      <path id="路径_208" data-name="路径 208" d="M328.59,307.99l-18.66-65.05h17.01l14.07,31.72Z" fill="#f5f5f5"/>
      <path id="路径_209" data-name="路径 209" d="M298.09,347.9l-18.42-33.61,1.15-68.83-11.46,72.39,28.73,63.5Z" fill="#f5f5f5"/>
      <path id="路径_210" data-name="路径 210" d="M279.67,314.29l43.38-25.61,4.91,20.99L298.09,347.9Z" fill="#e0e0e0"/>
      <path id="路径_211" data-name="路径 211" d="M209.07,314.26l-8.03,60.28-13.46-40.1Z" fill="#e0e0e0"/>
      <path id="路径_212" data-name="路径 212" d="M298.09,381.35l-89.02-67.09-8.03,60.28,3.25,3.8,20.04-30.44Z" fill="#f5f5f5"/>
      <path id="路径_213" data-name="路径 213" d="M281.37,404.65,243.3,376.39l32.69,62.31Z" fill="#e0e0e0"/>
      <path id="路径_214" data-name="路径 214" d="M231.79,430.33l-3.81-28.01-26.06,2.93Z" fill="#e0e0e0"/>
      <path id="路径_215" data-name="路径 215" d="M209.07,314.26,169.06,324l18.52,10.44Z" fill="#f5f5f5"/>
      <path id="路径_216" data-name="路径 216" d="M207.29,315.93c.09-1.26-4-68.25-4-68.25l34.49,1.88Z" fill="#f5f5f5"/>
    </g>
    <g id="freepik--Birds--inject-695">
      <path id="路径_217" data-name="路径 217" d="M160.49,110.58s-.88-.3-2.5-.66a20,20,0,0,0-7-.27,18.74,18.74,0,0,0-9.38,4A19.45,19.45,0,0,0,135,124.22v.12l-.19.75-.29-.71a20.91,20.91,0,0,0-7.94-9.58,20.23,20.23,0,0,0-9.68-3.23,21.51,21.51,0,0,0-6.93.63c-1.59.42-2.44.79-2.46.75a2.94,2.94,0,0,1,.6-.29,15.3,15.3,0,0,1,1.81-.65,20.69,20.69,0,0,1,16.92,2.4,21.19,21.19,0,0,1,8.15,9.78h-.48v-.12a19.78,19.78,0,0,1,6.82-10.77A19.32,19.32,0,0,1,158,109.73a12.81,12.81,0,0,1,1.84.58,4.47,4.47,0,0,1,.65.27Z" fill="#263238"/>
      <path id="路径_218" data-name="路径 218" d="M230.14,72.36s-.49-.14-1.38-.32a11.13,11.13,0,0,0-3.81-.11,10.26,10.26,0,0,0-5.11,2.23,10.63,10.63,0,0,0-3.6,5.73v.06l-.19.75-.29-.71a11.47,11.47,0,0,0-4.32-5.22A11.15,11.15,0,0,0,206.15,73a11.87,11.87,0,0,0-3.79.32c-.88.21-1.35.4-1.37.36a1.4,1.4,0,0,1,.33-.18,6.71,6.71,0,0,1,1-.37,11.33,11.33,0,0,1,9.38,1.27,11.71,11.71,0,0,1,4.53,5.42h-.48v-.07a11,11,0,0,1,3.8-6,10.62,10.62,0,0,1,9.26-2,6.789,6.789,0,0,1,1,.34,1.37,1.37,0,0,1,.33.27Z" fill="#263238"/>
      <path id="路径_219" data-name="路径 219" d="M184.6,56.72s-.48.55-1.34,1.52A33.071,33.071,0,0,0,180,62.65a32.13,32.13,0,0,0-4.85,17.18v.21h-.5a28.17,28.17,0,0,0-3.14-9.31,29.36,29.36,0,0,0-4.78-6.46,29.73,29.73,0,0,0-4.15-3.51c-1.05-.73-1.67-1.1-1.64-1.14a2,2,0,0,1,.46.22,13.15,13.15,0,0,1,1.29.76A26,26,0,0,1,167,64.07,28.36,28.36,0,0,1,175.13,80h-.5v-.22a31.54,31.54,0,0,1,5.06-17.37,29.182,29.182,0,0,1,3.42-4.36c.44-.48.84-.81,1.08-1.05a2.33,2.33,0,0,1,.41-.28Z" fill="#263238"/>
    </g>
    <g id="freepik--Sea--inject-695">
      <path id="路径_220" data-name="路径 220" d="M452.77,248.41s-.34.11-1,.29-1.65.44-2.95.76c-2.59.63-6.44,1.53-11.45,2.39-2.5.41-5.3.84-8.39,1.08a77.185,77.185,0,0,1-10.06-.06q-5.4-.36-11.5-1.2c-2-.27-4.1-.64-6.24-1l-6.57-1-14.1-2-15.34-1.84c-2.64-.35-5.35-.57-8.09-.82l-8.37-.77c-2.82-.3-5.71-.41-8.62-.6s-5.88-.37-8.87-.51a289.867,289.867,0,0,0-37.6.82c-13,1.1-26.31,3.69-40.13,4.9a219.5,219.5,0,0,1-40.44-.43c-13-1.17-25.52-2.82-37.48-3.71-3-.24-5.95-.41-8.87-.55l-4.35-.16h-4.28a113.515,113.515,0,0,0-16.36,2.08c-5.24,1-10.28,2.11-15.14,3.08s-9.56,1.79-14.06,2.4a123.636,123.636,0,0,1-12.91,1.12c-2,.09-4,0-6,.07l-2.85-.1c-.93,0-1.84-.15-2.74-.21a144.9,144.9,0,0,1-18.26-3.05c-5-1.12-8.76-2.14-11.33-2.87l-2.92-.85c-.66-.2-1-.32-1-.32s.34.08,1,.27l2.93.8c2.58.69,6.4,1.69,11.36,2.77a146.648,146.648,0,0,0,18.23,3c.9.06,1.81.16,2.74.2l2.84.09c1.92,0,3.9,0,5.94-.09,4.08-.17,8.39-.55,12.88-1.15s9.17-1.45,14-2.43,9.89-2.1,15.13-3.11a112.887,112.887,0,0,1,16.43-2.12c1.43-.05,2.87,0,4.31-.05l4.36.16c2.93.13,5.89.3,8.88.54,12,.88,24.49,2.52,37.5,3.68a219.332,219.332,0,0,0,40.34.42c13.79-1.21,27.1-3.79,40.14-4.89a290.655,290.655,0,0,1,37.66-.79c3,.14,5.95.35,8.88.52s5.8.31,8.63.61l8.37.79c2.75.26,5.45.48,8.1.83l15.34,1.87,14.11,2.06,6.57,1c2.14.33,4.2.7,6.23,1,4,.57,7.88,1,11.47,1.24a75.348,75.348,0,0,0,10,.1c3.07-.22,5.87-.64,8.37-1,5-.83,8.86-1.69,11.46-2.29l3-.71Z" fill="#263238"/>
      <path id="路径_221" data-name="路径 221" d="M222.6,260.64l-.26.1-.79.25-1.28.4a12.1,12.1,0,0,1-1.78.45,42.751,42.751,0,0,1-11.63.86,116.587,116.587,0,0,1-17.13-2.47c-3.2-.62-6.54-1.29-10-1.85a77.421,77.421,0,0,0-10.86-1.08,59.8,59.8,0,0,0-10.89.73c-3.49.52-6.84,1.17-10,1.84a149.287,149.287,0,0,1-17.07,2.89,43,43,0,0,1-11.66-.42l-1-.16c-.3-.06-.57-.15-.83-.21l-1.3-.35-.79-.22a1.1,1.1,0,0,1-.27-.09.849.849,0,0,1,.28,0l.81.17,1.3.3.83.19,1,.13a44.69,44.69,0,0,0,11.59.25,157,157,0,0,0,17-3c3.19-.68,6.54-1.35,10.06-1.88a61.465,61.465,0,0,1,11-.75,78.07,78.07,0,0,1,10.93,1.11c3.51.56,6.86,1.25,10,1.88a120.872,120.872,0,0,0,17.06,2.57,44.589,44.589,0,0,0,11.57-.68,14,14,0,0,0,1.78-.41l1.29-.35.8-.2Z" fill="#263238"/>
      <path id="路径_222" data-name="路径 222" d="M271,260.22a7.679,7.679,0,0,1-2.16.92,25.18,25.18,0,0,1-11.22,1,8.07,8.07,0,0,1-2.29-.53,54.755,54.755,0,0,0,7.91.16A52.934,52.934,0,0,0,271,260.22Z" fill="#263238"/>
    </g>
    <g id="freepik--Bubbles--inject-695">
      <circle id="椭圆_28" data-name="椭圆 28" cx="5.85" cy="5.85" r="5.85" transform="translate(163.24 323.39)" fill="#fafafa" stroke="#a7a7a7" stroke-width="1"/>
      <path id="路径_223" data-name="路径 223" d="M172.94,374.24a10.179,10.179,0,0,0-.28-1.41,5.83,5.83,0,0,0-2.14-3.1,5.63,5.63,0,1,0,0,9,5.79,5.79,0,0,0,2.14-3.1c.25-.88.23-1.4.28-1.4s0,.13,0,.37a4.479,4.479,0,0,1-.12,1.08,5.83,5.83,0,0,1-2.12,3.35,6,6,0,0,1-8.57-1.19,6.07,6.07,0,0,1,0-7.22,6,6,0,0,1,8.57-1.19,5.84,5.84,0,0,1,2.12,3.34,4.581,4.581,0,0,1,.12,1.08Q173.03,374.24,172.94,374.24Z" fill="#263238"/>
      <path id="路径_224" data-name="路径 224" d="M161.89,362.88a2.55,2.55,0,1,1-2.55-2.55,2.55,2.55,0,0,1,2.55,2.55Z" fill="#fafafa"/>
      <path id="路径_225" data-name="路径 225" d="M161.89,362.88s-.06-.23-.18-.6a2.58,2.58,0,0,0-.94-1.28,2.39,2.39,0,0,0-2.21-.29,2.32,2.32,0,1,0,2.21,4,2.54,2.54,0,0,0,.94-1.28c.12-.37.14-.59.18-.59s.08.23,0,.64a2.58,2.58,0,0,1-.92,1.53,2.7,2.7,0,0,1-2.6.44,2.77,2.77,0,0,1,0-5.23,2.7,2.7,0,0,1,2.6.45,2.53,2.53,0,0,1,.92,1.52C162,362.65,161.92,362.88,161.89,362.88Z" fill="#263238"/>
      <path id="路径_226" data-name="路径 226" d="M174.48,388.38a2.54,2.54,0,1,1-.74-1.8,2.55,2.55,0,0,1,.74,1.8Z" fill="#fafafa"/>
      <path id="路径_227" data-name="路径 227" d="M174.48,388.38s-.06-.23-.18-.6a2.52,2.52,0,0,0-.94-1.28,2.39,2.39,0,0,0-2.21-.29,2.33,2.33,0,1,0,2.21,4.05,2.56,2.56,0,0,0,.94-1.28c.12-.37.14-.6.18-.6s.09.23,0,.65a2.56,2.56,0,0,1-.91,1.52,2.74,2.74,0,0,1-2.6.45,2.78,2.78,0,0,1,0-5.24,2.72,2.72,0,0,1,2.6.45,2.51,2.51,0,0,1,.91,1.52C174.57,388.15,174.51,388.38,174.48,388.38Z" fill="#263238"/>
      <path id="路径_228" data-name="路径 228" d="M171.72,354.88a1.28,1.28,0,1,1-1.27-1.27,1.28,1.28,0,0,1,1.27,1.27Z" fill="#fafafa"/>
      <path id="路径_229" data-name="路径 229" d="M171.72,354.88c-.08,0-.08-.5-.61-.87a1.11,1.11,0,0,0-1-.1,1,1,0,0,0,0,1.94,1.08,1.08,0,0,0,1-.11c.53-.36.53-.88.61-.86s.08.11.06.33a1.28,1.28,0,0,1-.45.83,1.45,1.45,0,0,1-1.4.26,1.5,1.5,0,0,1,0-2.84,1.45,1.45,0,0,1,1.4.26,1.26,1.26,0,0,1,.45.82C171.8,354.76,171.75,354.88,171.72,354.88Z" fill="#263238"/>
      <path id="路径_230" data-name="路径 230" d="M179,378.37a1.27,1.27,0,1,1-.368-.9,1.27,1.27,0,0,1,.368.9Z" fill="#fafafa"/>
      <path id="路径_231" data-name="路径 231" d="M179,378.37c-.08,0-.08-.5-.61-.87a1.11,1.11,0,0,0-1-.1,1,1,0,0,0,0,1.94,1.08,1.08,0,0,0,1-.11c.53-.36.53-.88.61-.86s.08.11.06.33a1.28,1.28,0,0,1-.45.83,1.43,1.43,0,0,1-1.39.26,1.5,1.5,0,0,1,0-2.84,1.43,1.43,0,0,1,1.39.26,1.26,1.26,0,0,1,.45.82C179.11,378.25,179.06,378.37,179,378.37Z" fill="#263238"/>
      <circle id="椭圆_29" data-name="椭圆 29" cx="7.2" cy="7.2" r="7.2" transform="matrix(0.799, -0.602, 0.602, 0.799, 314.353, 343.573)" fill="#fafafa"/>
      <path id="路径_232" data-name="路径 232" d="M331.58,346c-.06,0,.05-.64-.09-1.76A7.25,7.25,0,0,0,329.4,340a6.973,6.973,0,0,0-11.05,8.27,6.86,6.86,0,0,0,2.86,2.84,7,7,0,0,0,3.59.81,6.93,6.93,0,0,0,3.1-.87,7.15,7.15,0,0,0,3.12-3.46c.44-1,.5-1.68.56-1.67a2.269,2.269,0,0,1,0,.46,5.5,5.5,0,0,1-.33,1.29,7.14,7.14,0,0,1-3.13,3.7,7.4,7.4,0,0,1-3.26,1,7.51,7.51,0,0,1-3.83-.82,7.33,7.33,0,0,1-3.09-3,7.41,7.41,0,0,1,5-10.82,7.3,7.3,0,0,1,8.82,6.45,5.451,5.451,0,0,1,0,1.32A2.719,2.719,0,0,1,331.58,346Z" fill="#263238"/>
      <path id="路径_233" data-name="路径 233" d="M331.12,363.44a3.13,3.13,0,1,1-.615-2.318A3.13,3.13,0,0,1,331.12,363.44Z" fill="#fafafa"/>
      <path id="路径_234" data-name="路径 234" d="M331.12,363.44c-.05,0,0-.28-.1-.76a3.09,3.09,0,0,0-.93-1.74,3,3,0,0,0-2.69-.74,2.91,2.91,0,1,0,2.06,5.38,3.12,3.12,0,0,0,1.36-1.43c.2-.44.25-.72.3-.71a1.47,1.47,0,0,1-.11.78,3.07,3.07,0,0,1-1.36,1.68,3.32,3.32,0,0,1-3.2.11,3.36,3.36,0,0,1,.85-6.28,3.29,3.29,0,0,1,3.05.95,3.07,3.07,0,0,1,.87,2,1.48,1.48,0,0,1-.1.76Z" fill="#263238"/>
      <path id="路径_235" data-name="路径 235" d="M338.32,352a1.56,1.56,0,1,1-.3-1.159A1.57,1.57,0,0,1,338.32,352Z" fill="#fafafa"/>
      <path id="路径_236" data-name="路径 236" d="M338.32,352c-.09,0,0-.63-.58-1.19a1.39,1.39,0,0,0-1.25-.32,1.338,1.338,0,0,0-.32,2.47,1.39,1.39,0,0,0,1.3,0c.72-.38.78-1,.87-1s.06.15,0,.41a1.56,1.56,0,0,1-.68.9,1.74,1.74,0,0,1-1.7.08,1.8,1.8,0,0,1,.45-3.37,1.75,1.75,0,0,1,1.62.53,1.54,1.54,0,0,1,.42,1C338.42,351.86,338.35,352,338.32,352Z" fill="#263238"/>
      <path id="路径_237" data-name="路径 237" d="M243.08,277.46a5.35,5.35,0,1,1-4.59-6,5.35,5.35,0,0,1,4.59,6Z" fill="#fafafa"/>
      <path id="路径_238" data-name="路径 238" d="M243.08,277.46c-.06,0,0-.48-.1-1.3a5.34,5.34,0,0,0-1.56-3.07,5.13,5.13,0,1,0-1.1,8.14,5.34,5.34,0,0,0,2.32-2.53c.33-.77.38-1.25.44-1.24a1.159,1.159,0,0,1,0,.35,4.381,4.381,0,0,1-.23,1,5.3,5.3,0,0,1-2.33,2.78,5.54,5.54,0,0,1-7.65-2.13,5.65,5.65,0,0,1-.64-3.43,5.546,5.546,0,0,1,9.47-3.14,5.34,5.34,0,0,1,1.51,3.3,4.19,4.19,0,0,1,0,1A1.311,1.311,0,0,1,243.08,277.46Z" fill="#263238"/>
      <path id="路径_239" data-name="路径 239" d="M234.45,265.81a2.32,2.32,0,1,1-.454-1.727A2.33,2.33,0,0,1,234.45,265.81Z" fill="#fafafa"/>
      <path id="路径_240" data-name="路径 240" d="M234.45,265.81a2.5,2.5,0,0,0-.09-.56,2.4,2.4,0,0,0-.7-1.27,2.18,2.18,0,0,0-1.95-.52,2.1,2.1,0,0,0-.53,3.89,2.15,2.15,0,0,0,2,0,2.28,2.28,0,0,0,1-1c.16-.32.2-.53.24-.52s.06.22,0,.59a2.32,2.32,0,0,1-1,1.28,2.49,2.49,0,0,1-2.43.09,2.55,2.55,0,0,1,.64-4.78,2.51,2.51,0,0,1,2.32.73,2.36,2.36,0,0,1,.64,1.51C234.57,265.61,234.48,265.82,234.45,265.81Z" fill="#263238"/>
      <path id="路径_241" data-name="路径 241" d="M242.73,290.46a2.33,2.33,0,1,1-2-2.62A2.33,2.33,0,0,1,242.73,290.46Z" fill="#fafafa"/>
      <path id="路径_242" data-name="路径 242" d="M242.73,290.46a2.5,2.5,0,0,0-.09-.56,2.34,2.34,0,0,0-.7-1.26,2.17,2.17,0,0,0-2-.53,2.1,2.1,0,0,0-.52,3.89,2.15,2.15,0,0,0,2,0,2.28,2.28,0,0,0,1-1c.16-.32.2-.52.24-.52s.06.22,0,.59a2.3,2.3,0,0,1-1,1.28,2.47,2.47,0,0,1-2.42.09,2.55,2.55,0,0,1,.64-4.78,2.49,2.49,0,0,1,2.32.74,2.32,2.32,0,0,1,.64,1.5C242.84,290.27,242.76,290.47,242.73,290.46Z" fill="#263238"/>
      <path id="路径_243" data-name="路径 243" d="M244.34,259.77a1.16,1.16,0,1,1-.227-.863,1.16,1.16,0,0,1,.227.863Z" fill="#fafafa"/>
      <path id="路径_244" data-name="路径 244" d="M244.34,259.77c-.08,0,0-.46-.46-.85a1,1,0,0,0-.89-.21.93.93,0,0,0-.23,1.72,1,1,0,0,0,.91,0c.53-.26.59-.73.67-.7s.07.12,0,.32a1.16,1.16,0,0,1-.51.7,1.33,1.33,0,0,1-1.31.07,1.4,1.4,0,0,1,.35-2.62,1.33,1.33,0,0,1,1.25.42,1.16,1.16,0,0,1,.31.81C244.43,259.68,244.37,259.78,244.34,259.77Z" fill="#263238"/>
      <path id="路径_245" data-name="路径 245" d="M248.09,282a1.17,1.17,0,1,1-.4-1.163,1.17,1.17,0,0,1,.4,1.163Z" fill="#fafafa"/>
      <path id="路径_246" data-name="路径 246" d="M248.09,282c-.09,0,0-.46-.47-.85a1,1,0,0,0-.88-.21.94.94,0,0,0-.24,1.72,1,1,0,0,0,.92,0c.52-.25.59-.72.67-.69s.06.11,0,.31a1.24,1.24,0,0,1-.51.71,1.38,1.38,0,0,1-1.32.07,1.4,1.4,0,0,1-.76-1.44,1.42,1.42,0,0,1,1.12-1.18,1.32,1.32,0,0,1,1.24.42,1.16,1.16,0,0,1,.31.81C248.18,281.86,248.12,282,248.09,282Z" fill="#263238"/>
    </g>
    <g id="freepik--Fishes--inject-695" transform="translate(-53 -1)">
      <path id="路径_247" data-name="路径 247" d="M148.68,305.65c-2.43,1.12-5.27-.47-7.94-.15-.55.06-1.22.35-1.25.91s.45.83.88,1.07a27.379,27.379,0,0,0,3.68,1.72,20.459,20.459,0,0,0-1.68,3.46c-.2.54-.34,1.24.11,1.6s1.3-.1,1.79-.59l4.5-4.65a2.24,2.24,0,0,1-.18,2.15,6.61,6.61,0,0,1-1.54,1.63,18.26,18.26,0,0,0,6.76.49A26.26,26.26,0,0,0,162.1,312a8.8,8.8,0,0,0,5.63-5.84,46.67,46.67,0,0,1-4.15-4.5,8.18,8.18,0,0,0-5.21-2.93c-2.09-.11-4,1.05-5.8,2.13s-3.81,2.14-5.88,1.79a3.379,3.379,0,0,0-.95-.1.77.77,0,0,0-.69.56,1,1,0,0,0,.33.77,5.1,5.1,0,0,0,3.6,1.68" fill="#ff725e"/>
      <g id="组_29" data-name="组 29" opacity="0.3">
        <path id="路径_248" data-name="路径 248" d="M153.09,308.53a36.66,36.66,0,0,0-2-6.89,11.669,11.669,0,0,1-1.41.62c1,2.81,2.16,6,2.93,8.91A2.83,2.83,0,0,0,153.09,308.53Z" fill="#fff"/>
      </g>
      <g id="组_30" data-name="组 30" opacity="0.3">
        <path id="路径_249" data-name="路径 249" d="M154.07,299.94l-1.36.78q1.46,4.61,2.89,9.2a1.33,1.33,0,0,0,.23.46.4.4,0,0,0,.47.12.59.59,0,0,0,.24-.44,12.77,12.77,0,0,0-2.47-10.12Z" fill="#fff"/>
      </g>
      <g id="组_31" data-name="组 31" opacity="0.3">
        <path id="路径_250" data-name="路径 250" d="M158.79,298.73a75.546,75.546,0,0,1,1.17,7.63,8,8,0,0,1-.06,2.85c-.06.25-.19.53-.44.58s-.61-.39-.7-.76c-.84-3.39-1.59-6.71-2.29-10.12a5.73,5.73,0,0,1,2.32-.18Z" fill="#fff"/>
      </g>
      <g id="组_32" data-name="组 32" opacity="0.3">
        <path id="路径_251" data-name="路径 251" d="M161.27,299.68a61.126,61.126,0,0,0,1.46,7.19c.09.31.28.69.61.67s.48-.51.49-.88v-4.82a12.4,12.4,0,0,0-2.56-2.16Z" fill="#fff"/>
      </g>
      <path id="路径_252" data-name="路径 252" d="M165.45,305.64a.318.318,0,1,1-.36-.27.31.31,0,0,1,.36.27Z"/>
      <path id="路径_253" data-name="路径 253" d="M174.7,286.7c-2.67,1.24-5.8-.51-8.73-.17-.62.08-1.35.39-1.38,1s.5.92,1,1.18a30.282,30.282,0,0,0,4,1.89,22.663,22.663,0,0,0-1.84,3.81c-.22.59-.37,1.36.12,1.76s1.43-.11,2-.65l5-5.11a2.46,2.46,0,0,1-.19,2.36,7.41,7.41,0,0,1-1.7,1.79,20.18,20.18,0,0,0,7.44.54,28.61,28.61,0,0,0,9.12-1.47c2.89-1.13,5.5-3.41,6.2-6.42a49.9,49.9,0,0,1-4.57-5c-1.54-1.64-3.49-3.1-5.73-3.22s-4.41,1.16-6.39,2.34-4.19,2.35-6.47,2a3.65,3.65,0,0,0-1-.11.83.83,0,0,0-.76.62,1.09,1.09,0,0,0,.36.84,5.61,5.61,0,0,0,4,1.86" fill="#ff725e"/>
      <g id="组_33" data-name="组 33" opacity="0.3">
        <path id="路径_254" data-name="路径 254" d="M179.55,289.87a40.76,40.76,0,0,0-2.17-7.58,11.26,11.26,0,0,1-1.56.68c1.14,3.1,2.38,6.63,3.23,9.81C179.82,292.1,179.74,290.89,179.55,289.87Z" fill="#fff"/>
      </g>
      <g id="组_34" data-name="组 34" opacity="0.3">
        <path id="路径_255" data-name="路径 255" d="M180.63,280.43l-1.49.85,3.18,10.12a1.349,1.349,0,0,0,.25.51.46.46,0,0,0,.51.14c.18-.09.23-.31.27-.5a14,14,0,0,0-2.72-11.12Z" fill="#fff"/>
      </g>
      <g id="组_35" data-name="组 35" opacity="0.3">
        <path id="路径_256" data-name="路径 256" d="M185.83,279.09c.55,2.72,1,5.64,1.29,8.39a8.94,8.94,0,0,1-.07,3.14c-.07.27-.21.58-.48.64s-.67-.43-.78-.84c-.92-3.73-1.75-7.37-2.52-11.14A6.39,6.39,0,0,1,185.83,279.09Z" fill="#fff"/>
      </g>
      <g id="组_36" data-name="组 36" opacity="0.3">
        <path id="路径_257" data-name="路径 257" d="M188.56,280.13a65,65,0,0,0,1.6,7.91c.11.35.32.76.68.74s.53-.56.53-1c0-2.22.06-3.07,0-5.29a13.529,13.529,0,0,0-2.81-2.36Z" fill="#fff"/>
      </g>
      <path id="路径_258" data-name="路径 258" d="M193.16,286.69a.37.37,0,0,1-.3.4.35.35,0,0,1-.39-.3.34.34,0,0,1,.29-.39A.35.35,0,0,1,193.16,286.69Z"/>
      <path id="路径_259" data-name="路径 259" d="M211.55,299.41c-1.93.9-4.2-.37-6.32-.12-.45,0-1,.28-1,.73s.36.66.7.85a21.1,21.1,0,0,0,2.93,1.37,16.742,16.742,0,0,0-1.34,2.76c-.16.43-.26,1,.09,1.27s1-.07,1.43-.47l3.59-3.7a1.82,1.82,0,0,1-.14,1.72,5.58,5.58,0,0,1-1.23,1.29,14.5,14.5,0,0,0,5.38.39,20.7,20.7,0,0,0,6.61-1.06,7.08,7.08,0,0,0,4.49-4.65,36.381,36.381,0,0,1-3.31-3.59,6.49,6.49,0,0,0-4.15-2.33c-1.67-.09-3.19.84-4.63,1.69s-3,1.71-4.68,1.43a2.77,2.77,0,0,0-.76-.08.61.61,0,0,0-.55.45.81.81,0,0,0,.26.61,4.05,4.05,0,0,0,2.87,1.34" fill="#ff725e"/>
      <g id="组_37" data-name="组 37" opacity="0.3">
        <path id="路径_260" data-name="路径 260" d="M215.07,301.71a29.73,29.73,0,0,0-1.58-5.49,8.358,8.358,0,0,1-1.12.49c.82,2.24,1.72,4.8,2.33,7.11a2.26,2.26,0,0,0,.37-2.11Z" fill="#fff"/>
      </g>
      <g id="组_38" data-name="组 38" opacity="0.3">
        <path id="路径_261" data-name="路径 261" d="M215.85,294.87l-1.08.62c.77,2.44,1.53,4.88,2.3,7.33a1.061,1.061,0,0,0,.18.37.31.31,0,0,0,.37.09c.13-.06.17-.22.2-.35a10.18,10.18,0,0,0-1.97-8.06Z" fill="#fff"/>
      </g>
      <g id="组_39" data-name="组 39" opacity="0.3">
        <path id="路径_262" data-name="路径 262" d="M219.61,293.9a59.521,59.521,0,0,1,.94,6.08,6.41,6.41,0,0,1-.05,2.27c-.05.2-.15.42-.35.46s-.49-.31-.56-.6c-.67-2.7-1.27-5.35-1.83-8.07A4.77,4.77,0,0,1,219.61,293.9Z" fill="#fff"/>
      </g>
      <g id="组_40" data-name="组 40" opacity="0.3">
        <path id="路径_263" data-name="路径 263" d="M221.59,294.65a48.694,48.694,0,0,0,1.16,5.73c.08.25.23.56.49.54s.39-.41.39-.7v-3.84A10.212,10.212,0,0,0,221.59,294.65Z" fill="#fff"/>
      </g>
      <path id="路径_264" data-name="路径 264" d="M224.92,299.41a.25.25,0,0,1-.21.28.26.26,0,0,1-.29-.22.252.252,0,1,1,.5-.06Z"/>
    </g>
    <g id="freepik--Whale--inject-695" transform="translate(54 -98)">
      <path id="路径_265" data-name="路径 265" d="M131.93,434.47s-9-2.81-6.2-6.82c2.18-3.16,40.08-10.73,43.07-11.77s6-4,10.53-4.7,6.84,2.22,12.85,1.42,107.33-15.51,107.33-15.51,13.78-2.38,17.82-3.42,12.79-5.16,14.55-4.88-2.45,2.63-1.71,4.18c0,0,31.12-5.07,36.42-9.35,0,0,2.56-3.07-1.34-6.54s-13.2-18.8-1.41-26.74c0,0,1.8-.58,1.93,2.16s.88,4.29,7.52,8.68,8.73,4.18,9.52,7l.79,2.82s1.71-1,5.07-.18,5.25,3.82,9.84,6.5,8.41,4.68,11.48,5.11,3.07.44,2.5,1.84-7.51,4.93-16.22,6.07-16.29-3.7-20.42-2-6.54,5.29-11.28,8.71c-4.08,2.94-54.63,41.78-90,54.11s-90.19,10.39-101.4,9-41.66-13.65-45.45-18c-.58-.65-1.72-4.71-2.2-5.71Z" fill="#455a64"/>
      <path id="路径_266" data-name="路径 266" d="M131.93,434.47s45.34-7.68,52.43-3.18,5.16,7.5,13.35,7.5,24.08,9.69,45.83,1.92,100.2-38.53,111.76-43.26l16.24-6.36s-4.35,3.9-11.49,9.31c-14.5,11-40,29-60.59,39.42A157,157,0,0,1,282.74,448a141,141,0,0,1-31.38,9c-3.89.66-8,1.68-12.36,2-24.2,1.75-47.23,3.17-64.18,1.32-9.15-1-16.42-4.61-25.06-7.26,0,0-7.16-2.83-13-5.54a51.735,51.735,0,0,1-7.45-4.06c-2.35-1.76-2.32-2.9-3.78-7Z" fill="#fff"/>
      <path id="路径_267" data-name="路径 267" d="M372.62,390.23l-.67.61-2,1.73c-1.78,1.51-4.41,3.71-7.9,6.42-6.95,5.47-17.57,12.6-30.45,21.74-3.26,2.24-6.72,4.51-10.41,6.76s-7.57,4.49-11.58,6.82-8.14,4.79-12.47,7.19a141.434,141.434,0,0,1-13.77,6.62,133.5,133.5,0,0,1-15.18,5.25c-5.27,1.47-10.74,2.66-16.32,3.75-2.79.54-5.59,1.09-8.45,1.59s-5.74.9-8.67,1.21c-5.84.63-11.8.89-17.83,1-3.9.1-7.78.17-11.61.36s-7.65.26-11.42.19c-7.54-.13-14.91-.59-22.06-1.21h0a105.054,105.054,0,0,1-13.87-4.06c-4.45-1.59-8.74-3.31-12.89-5.09s-8.16-3.6-12-5.5c-1-.47-1.92-1-2.85-1.45a12.337,12.337,0,0,1-1.39-.82,5.68,5.68,0,0,1-1.12-1.18,17.68,17.68,0,0,1-2.39-5.73v-.19l.19-.06c10.9-3.53,21.35-4.84,30.52-5.62,4.6-.37,8.91-.58,12.88-.72,2-.06,3.9-.16,5.73-.11a49.412,49.412,0,0,1,5.2.41,24.908,24.908,0,0,1,4.57,1,9,9,0,0,1,3.37,2.38c1.72,1.87,3.18,3.51,4.79,4.26a9.84,9.84,0,0,0,3.83,1h1.37l-1.38.06a9.4,9.4,0,0,1-3.88-.93c-1.64-.73-3.14-2.39-4.87-4.24a8.63,8.63,0,0,0-3.3-2.3,24.258,24.258,0,0,0-4.54-1,46.2,46.2,0,0,0-5.17-.37c-1.81-.05-3.72.06-5.71.13-4,.15-8.27.38-12.86.77-9.16.81-19.57,2.14-30.42,5.67l.14-.25a16.92,16.92,0,0,0,2.33,5.57,4.8,4.8,0,0,0,1,1.08,10.585,10.585,0,0,0,1.33.78c.93.49,1.88,1,2.84,1.44,3.84,1.89,7.85,3.71,12,5.48s8.43,3.48,12.86,5.06a105.926,105.926,0,0,0,13.81,4h0c7.14.61,14.51,1.06,22,1.2,3.76.06,7.55,0,11.39-.2s7.72-.26,11.62-.36c6-.15,12-.41,17.79-1,2.91-.3,5.79-.72,8.63-1.2s5.66-1.05,8.45-1.58c5.57-1.08,11-2.27,16.28-3.73a134.364,134.364,0,0,0,15.12-5.21,143.074,143.074,0,0,0,13.74-6.58c4.32-2.38,8.44-4.86,12.47-7.17s7.91-4.55,11.59-6.79,7.15-4.49,10.41-6.71c12.91-9.1,23.55-16.19,30.53-21.6,3.51-2.69,6.17-4.86,8-6.34l2-1.69C372.38,390.41,372.62,390.23,372.62,390.23Z" fill="#263238"/>
      <path id="路径_268" data-name="路径 268" d="M195.67,432.63a1.9,1.9,0,1,1-.15.1" fill="#263238"/>
      <path id="路径_269" data-name="路径 269" d="M258.11,443.9,248,433.45l-26.25,5a63.85,63.85,0,0,0,25.5,11.83c1.49.3,3.26.13,4.76.31a9.839,9.839,0,0,0,5.2-.36c1.61-.71,2.87-2.53,2.35-4.22a5.59,5.59,0,0,0-1.45-2.11Z" fill="#455a64"/>
      <path id="路径_270" data-name="路径 270" d="M184.08,457.55a1.239,1.239,0,0,1-.47,0h-1.34c-1.16,0-2.84-.05-4.92-.18a63.49,63.49,0,0,1-30.54-10.26c-1.75-1.12-3.13-2.1-4.05-2.8l-1.06-.81a1.789,1.789,0,0,1-.35-.31,3.031,3.031,0,0,1,.41.22l1.11.74c1,.65,2.37,1.57,4.14,2.65A68.18,68.18,0,0,0,177.38,457c2.06.17,3.74.31,4.9.35l1.33.08A2,2,0,0,1,184.08,457.55Z" fill="#263238"/>
      <path id="路径_271" data-name="路径 271" d="M188.44,454.83a12.209,12.209,0,0,1-1.72,0c-1.11,0-2.71-.1-4.68-.28a82,82,0,0,1-15.18-2.85,74.262,74.262,0,0,1-8-2.89,57.056,57.056,0,0,1-6.2-3.15c-.86-.49-1.6-1-2.26-1.43a19.459,19.459,0,0,1-1.65-1.16A9.749,9.749,0,0,1,147.4,442a11.311,11.311,0,0,1,1.45.92c.45.31,1,.68,1.69,1.08s1.41.89,2.29,1.35a64.617,64.617,0,0,0,6.2,3,81.666,81.666,0,0,0,8,2.83,92.227,92.227,0,0,0,15.07,3c2,.23,3.55.37,4.65.44a10.612,10.612,0,0,1,1.69.21Z" fill="#263238"/>
      <path id="路径_272" data-name="路径 272" d="M193.09,451.88a11.523,11.523,0,0,1-1.65,0c-1.06-.05-2.59-.19-4.48-.41a84.923,84.923,0,0,1-14.49-3.07,72,72,0,0,1-13.68-5.69c-.84-.45-1.58-.88-2.22-1.28s-1.2-.74-1.63-1a11.472,11.472,0,0,1-1.33-1,10.565,10.565,0,0,1,1.44.8c.45.29,1,.6,1.67,1s1.4.78,2.24,1.21a81.819,81.819,0,0,0,13.66,5.51A99,99,0,0,0,187,451.08c1.87.26,3.39.46,4.44.56a9.509,9.509,0,0,1,1.65.24Z" fill="#263238"/>
      <path id="路径_273" data-name="路径 273" d="M201.39,449.31a10.727,10.727,0,0,1-1.77.07c-1.15,0-2.8,0-4.84-.15s-4.47-.38-7.14-.79a75.755,75.755,0,0,1-8.6-1.83,86.367,86.367,0,0,1-8.36-2.75c-2.52-1-4.74-2-6.57-2.91s-3.28-1.7-4.25-2.3a12.07,12.07,0,0,1-1.5-1,11.371,11.371,0,0,1,1.59.78c1,.54,2.48,1.28,4.32,2.15s4.07,1.83,6.58,2.79,5.33,1.88,8.32,2.7,5.9,1.4,8.55,1.86,5.06.73,7.09.9,3.67.27,4.81.31a11,11,0,0,1,1.77.17Z" fill="#263238"/>
      <path id="路径_274" data-name="路径 274" d="M202.73,446.26a10.276,10.276,0,0,1-1.58.16c-1,.07-2.51.15-4.34.16a46.43,46.43,0,0,1-14.2-1.82c-2.69-.82-5.16-1.85-7.4-2.75l-6-2.43-4-1.68a10.487,10.487,0,0,1-1.44-.68,8.218,8.218,0,0,1,1.52.49l4,1.53,6,2.32c2.25.88,4.72,1.89,7.37,2.71a49.929,49.929,0,0,0,14.05,1.94h4.33A8.6,8.6,0,0,1,202.73,446.26Z" fill="#263238"/>
      <path id="路径_275" data-name="路径 275" d="M207.09,444.21a9.34,9.34,0,0,1-1.44.12c-.92.05-2.26.06-3.92,0a75.277,75.277,0,0,1-12.84-1.49,74.383,74.383,0,0,1-12.39-3.71c-1.54-.62-2.77-1.16-3.6-1.57a8.213,8.213,0,0,1-1.27-.67,6.559,6.559,0,0,1,1.36.49c.85.35,2.09.84,3.64,1.41A84.748,84.748,0,0,0,201.75,444c1.64.09,3,.13,3.9.14a6.858,6.858,0,0,1,1.44.07Z" fill="#263238"/>
      <path id="路径_276" data-name="路径 276" d="M380.48,373.47a17.09,17.09,0,0,1-6.71,7.31c-.09-.13,1.67-1.49,3.51-3.51S380.35,373.39,380.48,373.47Z" fill="#263238"/>
      <path id="路径_277" data-name="路径 277" d="M250.45,432a2.71,2.71,0,0,1-.13.54,3.68,3.68,0,0,0,.14,1.57,14.9,14.9,0,0,0,3,5,34.456,34.456,0,0,0,2.81,3,13.42,13.42,0,0,1,3.17,3.58,3.39,3.39,0,0,1,.09,2.67,3.43,3.43,0,0,1-1.94,2,9.712,9.712,0,0,1-2.76.63,21.155,21.155,0,0,1-2.88.1,28.209,28.209,0,0,1-5.6-.79c-1.78-.44-3.44-1-5-1.53a68.268,68.268,0,0,1-8.15-3.5,58.808,58.808,0,0,1-5.2-3c-.6-.37-1-.68-1.35-.9s-.46-.33-.45-.35a3.2,3.2,0,0,1,.5.26l1.41.82c1.21.7,3,1.71,5.25,2.8a72.811,72.811,0,0,0,8.15,3.37c1.57.53,3.24,1.07,5,1.5a28.818,28.818,0,0,0,5.5.76,21.808,21.808,0,0,0,2.81-.09,9.559,9.559,0,0,0,2.61-.59,3,3,0,0,0,1.62-4,13.37,13.37,0,0,0-3-3.47,34.64,34.64,0,0,1-2.8-3.06,14.389,14.389,0,0,1-2.94-5.21,3.53,3.53,0,0,1,0-1.64A2,2,0,0,1,250.45,432Z" fill="#263238"/>
    </g>
    <g id="freepik--Sun--inject-695" transform="translate(55 78)">
      <circle id="椭圆_30" data-name="椭圆 30" cx="19.48" cy="19.48" r="19.48" transform="translate(322.9 78.755) rotate(-45)" fill="#ff725e"/>
      <path id="路径_278" data-name="路径 278" d="M347.68,122.31a75.71,75.71,0,0,1-.21-8,75.824,75.824,0,0,1,.21-8c.11,0,.2,3.6.2,8S347.79,122.31,347.68,122.31Z" fill="#ff725e"/>
      <path id="路径_279" data-name="路径 279" d="M336.45,101.71c.1.06-1.73,3.42-4.09,7.5s-4.35,7.34-4.44,7.29,1.73-3.41,4.09-7.5S336.36,101.66,336.45,101.71Z" fill="#ff725e"/>
      <path id="路径_280" data-name="路径 280" d="M324.94,94.54a43.434,43.434,0,0,1-4.55,3.88,46.569,46.569,0,0,1-4.81,3.56,43.428,43.428,0,0,1,4.55-3.88,43.721,43.721,0,0,1,4.81-3.56Z" fill="#ff725e"/>
      <path id="路径_281" data-name="路径 281" d="M367.1,114.4a13.123,13.123,0,0,1-.51-2c-.28-1.23-.68-2.92-1.17-4.77s-1-3.51-1.38-4.71a12.661,12.661,0,0,1-.55-2,9.091,9.091,0,0,1,.83,1.87c.44,1.19,1,2.84,1.49,4.71s.86,3.57,1.07,4.81A8.841,8.841,0,0,1,367.1,114.4Z" fill="#ff725e"/>
      <path id="路径_282" data-name="路径 282" d="M386.86,100.38a70.077,70.077,0,0,1-5.76-4.76,70.723,70.723,0,0,1-5.49-5.07,68.171,68.171,0,0,1,5.76,4.76,66.438,66.438,0,0,1,5.49,5.07Z" fill="#ff725e"/>
      <path id="路径_283" data-name="路径 283" d="M394.42,81.12a18,18,0,0,1-2.34-.34c-1.45-.24-3.44-.55-5.66-.81s-4.23-.4-5.69-.49a17.9,17.9,0,0,1-2.36-.2,11,11,0,0,1,2.38-.09,52.051,52.051,0,0,1,5.72.38c2.23.26,4.23.61,5.66.92A11.069,11.069,0,0,1,394.42,81.12Z" fill="#ff725e"/>
      <path id="路径_284" data-name="路径 284" d="M394.45,62.17c0,.11-4.19,1.24-9.42,2.51s-9.48,2.22-9.51,2.11,4.19-1.24,9.42-2.51S394.42,62.06,394.45,62.17Z" fill="#ff725e"/>
      <path id="路径_285" data-name="路径 285" d="M372.44,40.11c.1.06-1.92,3.28-4.5,7.18s-4.76,7-4.85,7S365,51,367.6,47.07A80.309,80.309,0,0,1,372.44,40.11Z" fill="#ff725e"/>
      <path id="路径_286" data-name="路径 286" d="M350.6,35.49a19.247,19.247,0,0,1,0,2.68c0,1.65-.06,3.92-.05,6.44s0,4.79.06,6.44a18.514,18.514,0,0,1,0,2.68,17.187,17.187,0,0,1-.26-2.67c-.11-1.65-.19-3.93-.19-6.45s.07-4.8.17-6.45A17.193,17.193,0,0,1,350.6,35.49Z" fill="#ff725e"/>
      <path id="路径_287" data-name="路径 287" d="M334.06,56.09c-.09.06-2.15-3.12-4.58-7.1s-4.33-7.26-4.23-7.32a84.354,84.354,0,0,1,4.58,7.11A81.837,81.837,0,0,1,334.06,56.09Z" fill="#ff725e"/>
      <path id="路径_288" data-name="路径 288" d="M324.18,64.49a9.81,9.81,0,0,1-2.07-.33c-1.26-.26-3-.69-4.9-1.25s-3.58-1.14-4.79-1.61a9.839,9.839,0,0,1-1.92-.84,11.11,11.11,0,0,1,2,.57c1.23.39,2.92.93,4.81,1.49s3.61,1,4.85,1.36a11.151,11.151,0,0,1,2.02.61Z" fill="#ff725e"/>
      <path id="路径_289" data-name="路径 289" d="M319.87,79.45a47.6,47.6,0,0,1-6.22.81,48.119,48.119,0,0,1-6.25.39,48.741,48.741,0,0,1,6.21-.8,49.522,49.522,0,0,1,6.26-.4Z" fill="#ff725e"/>
    </g>
  </g>
</svg>
