<?xml version="1.0" encoding="UTF-8"?>
<svg width="32px" height="32px" viewBox="0 0 32 32" version="1.1" xmlns="http://www.w3.org/2000/svg" xmlns:xlink="http://www.w3.org/1999/xlink">
    <title>文字</title>
    <g id="页面-1" stroke="none" stroke-width="1" fill="none" fill-rule="evenodd">
        <g id="iPhone-11-Pro备份" transform="translate(-32.000000, -458.000000)">
            <g id="编组-2" transform="translate(16.000000, 336.000000)">
                <g id="编组备份-2" transform="translate(0.000000, 106.000000)">
                    <g id="文字" transform="translate(16.000000, 16.000000)">
                        <rect id="矩形" x="0" y="0" width="32" height="32"></rect>
                        <path d="M19,3 L30,31 L25,31 L23.036,26 L8.964,26 L7,31 L2,31 L13,3 L19,3 Z M16,8.091 L10.536,22 L21.464,22 L16,8.091 Z" id="形状结合" fill="#23F559"></path>
                        <path d="M10.536,22 L8.964,26 L3.965,26 L5.536,22 L10.536,22 Z M26.464,22 L28.036,26 L23.036,26 L21.464,22 L26.464,22 Z" id="形状结合" fill="#1ED11D"></path>
                    </g>
                </g>
            </g>
        </g>
    </g>
</svg>