<?xml version="1.0" encoding="UTF-8"?>
<svg width="32px" height="32px" viewBox="0 0 32 32" version="1.1" xmlns="http://www.w3.org/2000/svg" xmlns:xlink="http://www.w3.org/1999/xlink">
    <title>语录</title>
    <g id="页面-1" stroke="none" stroke-width="1" fill="none" fill-rule="evenodd">
        <g id="iPhone-11-Pro备份" transform="translate(-32.000000, -384.000000)" fill-rule="nonzero">
            <g id="编组-2" transform="translate(16.000000, 336.000000)">
                <g id="编组" transform="translate(0.000000, 32.000000)">
                    <g id="语录" transform="translate(16.000000, 16.000000)">
                        <g id="xiaoxi" transform="translate(0.000000, 5.000000)">
                            <path d="M32,0 L32,23 L22.4578313,23 L16,26 L9.54216867,23 L0,23 L0,0 L32,0 Z M28,4 L4,4 L4,19 L10.6093494,19 L16,22 L21.3906506,19 L28,19 L28,4 Z" id="形状" fill="#47B5FF"></path>
                            <path d="M4,9.5 L4,13.5 L0,13.5 L0,9.5 L4,9.5 Z M32,9.5 L32,13.5 L28,13.5 L28,9.5 L32,9.5 Z" id="形状" fill="#067EDF"></path>
                            <polygon id="路径" fill="#47B5FF" points="8 9.5 24 9.5 24 13.5 8 13.5"></polygon>
                        </g>
                    </g>
                </g>
            </g>
        </g>
    </g>
</svg>